# xmcd CD database file
#
# Track frame offsets:
#	150
#	9984
#	23154
#	44127
#	53089
#	66481
#	80758
#	92851
#	112648
#	130563
#	144051
#	159559
#	173785
#	185995
#	206022
#	219710
#	236673
#	251785
#	267246
#	279381
#	290852
#	302296
#	318847
#	337074
#
# Disc length: 4683 seconds
#
# Revision: 0
# Processed by: cddbd v1.5PL3 Copyright (c) Steve Scherf et al.
# Submitted via: CDex 1.51
#
DISCID=65124918
DTITLE=Rob Hoeke Rhythm and Blues Group - Singles A's and B's                                    Disc 2
DYEAR=2004
DGENRE=Blues
TTITLE0=Jungle boogie
TTITLE1=Blues for kid
TTITLE2=Tony's blues
TTITLE3=Down south (part 2)
TTITLE4=So blue because of you
TTITLE5=Rigmore
TTITLE6=Rains snow and misery
TTITLE7=Down here
TTITLE8=Don't ask me what I say
TTITLE9=P.Kick boogie
TTITLE10=It won't be long
TTITLE11=Swinging clock boogie
TTITLE12=Don't feel ashamed
TTITLE13=Babe I wanna leave you
TTITLE14=Laughin' boogie
TTITLE15=Walking down the railroad
TTITLE16=Concentration
TTITLE17=I feel free
TTITLE18=Cuban boogie
TTITLE19=Mirrorman blues
TTITLE20=Back on the farm again
TTITLE21=Fallin' off the wagon
TTITLE22=Leave me alone
TTITLE23=For little Eva
EXTD=YEAR: 2004
EXTT0=
EXTT1=
EXTT2=
EXTT3=
EXTT4=
EXTT5=
EXTT6=
EXTT7=
EXTT8=
EXTT9=
EXTT10=
EXTT11=
EXTT12=
EXTT13=
EXTT14=
EXTT15=
EXTT16=
EXTT17=
EXTT18=
EXTT19=
EXTT20=
EXTT21=
EXTT22=
EXTT23=
PLAYORDER=
